<?xml version="1.0" encoding="UTF-8"?>
<svg xmlns="http://www.w3.org/2000/svg" xmlns:xlink="http://www.w3.org/1999/xlink" width="16pt" height="16pt" viewBox="0 0 16 16" version="1.1">
<g id="surface1">
<path style=" stroke:none;fill-rule:evenodd;fill:rgb(30.980392%,30.980392%,30.980392%);fill-opacity:1;" d="M 8 0 C 3.582031 0 0 3.582031 0 8 C 0 12.417969 3.582031 16 8 16 C 12.417969 16 16 12.417969 16 8 C 16 3.582031 12.417969 0 8 0 Z M 8.835938 8.351562 L 8.835938 12.703125 L 7.035156 12.703125 L 7.035156 8.351562 L 6.136719 8.351562 L 6.136719 6.851562 L 7.035156 6.851562 L 7.035156 5.953125 C 7.035156 4.726562 7.542969 4 8.984375 4 L 10.1875 4 L 10.1875 5.5 L 9.4375 5.5 C 8.875 5.5 8.835938 5.710938 8.835938 6.101562 L 8.835938 6.851562 L 10.195312 6.851562 L 10.035156 8.351562 Z M 8.835938 8.351562 "/>
</g>
</svg>
