<?xml version="1.0" encoding="UTF-8"?>
<svg xmlns="http://www.w3.org/2000/svg" xmlns:xlink="http://www.w3.org/1999/xlink" width="16pt" height="16pt" viewBox="0 0 16 16" version="1.1">
<g id="surface1">
<path style=" stroke:none;fill-rule:evenodd;fill:rgb(30.980392%,30.980392%,30.980392%);fill-opacity:1;" d="M 8 0 C 3.582031 0 0 3.582031 0 8 C 0 12.417969 3.582031 16 8 16 C 12.417969 16 16 12.417969 16 8 C 16 3.582031 12.417969 0 8 0 Z M 6.242188 3.757812 C 6.695312 3.738281 6.84375 3.734375 8 3.734375 C 9.160156 3.734375 9.304688 3.738281 9.757812 3.757812 C 10.214844 3.78125 10.523438 3.851562 10.796875 3.957031 C 11.078125 4.066406 11.3125 4.210938 11.550781 4.449219 C 11.789062 4.6875 11.933594 4.925781 12.042969 5.203125 C 12.148438 5.476562 12.21875 5.785156 12.242188 6.242188 C 12.261719 6.695312 12.265625 6.839844 12.265625 8 C 12.265625 9.160156 12.261719 9.304688 12.242188 9.757812 C 12.21875 10.210938 12.148438 10.523438 12.042969 10.792969 C 11.933594 11.074219 11.789062 11.3125 11.550781 11.550781 C 11.3125 11.789062 11.078125 11.933594 10.796875 12.042969 C 10.523438 12.148438 10.214844 12.21875 9.757812 12.242188 C 9.304688 12.261719 9.160156 12.265625 8 12.265625 C 6.84375 12.265625 6.695312 12.261719 6.242188 12.242188 C 5.789062 12.21875 5.476562 12.148438 5.207031 12.042969 C 4.925781 11.933594 4.6875 11.789062 4.449219 11.550781 C 4.214844 11.3125 4.066406 11.074219 3.957031 10.792969 C 3.851562 10.523438 3.78125 10.214844 3.761719 9.757812 C 3.738281 9.304688 3.734375 9.160156 3.734375 8 C 3.734375 6.839844 3.738281 6.695312 3.761719 6.242188 C 3.78125 5.785156 3.851562 5.476562 3.957031 5.203125 C 4.066406 4.925781 4.214844 4.6875 4.449219 4.449219 C 4.6875 4.210938 4.925781 4.066406 5.207031 3.957031 C 5.476562 3.851562 5.789062 3.78125 6.242188 3.757812 Z M 6.242188 3.757812 "/>
<path style=" stroke:none;fill-rule:evenodd;fill:rgb(30.980392%,30.980392%,30.980392%);fill-opacity:1;" d="M 7.613281 4.503906 L 7.996094 4.503906 C 9.136719 4.503906 9.273438 4.507812 9.722656 4.527344 C 10.136719 4.546875 10.363281 4.617188 10.515625 4.671875 C 10.714844 4.75 10.855469 4.84375 11.003906 4.992188 C 11.152344 5.140625 11.246094 5.285156 11.324219 5.484375 C 11.382812 5.632812 11.453125 5.859375 11.46875 6.277344 C 11.492188 6.726562 11.496094 6.859375 11.496094 8 C 11.496094 9.136719 11.492188 9.273438 11.46875 9.722656 C 11.453125 10.136719 11.382812 10.363281 11.324219 10.515625 C 11.246094 10.714844 11.152344 10.855469 11.003906 11.003906 C 10.855469 11.152344 10.714844 11.246094 10.515625 11.324219 C 10.363281 11.382812 10.136719 11.453125 9.722656 11.472656 C 9.273438 11.492188 9.136719 11.496094 7.996094 11.496094 C 6.859375 11.496094 6.722656 11.492188 6.273438 11.472656 C 5.859375 11.453125 5.632812 11.382812 5.480469 11.324219 C 5.28125 11.246094 5.140625 11.152344 4.992188 11.003906 C 4.839844 10.855469 4.75 10.714844 4.671875 10.515625 C 4.613281 10.363281 4.542969 10.136719 4.523438 9.722656 C 4.503906 9.273438 4.5 9.136719 4.5 7.996094 C 4.5 6.859375 4.503906 6.722656 4.523438 6.273438 C 4.542969 5.859375 4.613281 5.632812 4.671875 5.480469 C 4.75 5.28125 4.839844 5.140625 4.992188 4.992188 C 5.140625 4.84375 5.28125 4.75 5.480469 4.671875 C 5.632812 4.613281 5.859375 4.542969 6.273438 4.523438 C 6.667969 4.507812 6.820312 4.503906 7.613281 4.5 Z M 10.277344 5.210938 C 9.992188 5.210938 9.761719 5.441406 9.761719 5.722656 C 9.761719 6.003906 9.992188 6.234375 10.277344 6.234375 C 10.558594 6.234375 10.789062 6.003906 10.789062 5.722656 C 10.789062 5.441406 10.558594 5.210938 10.277344 5.210938 Z M 5.808594 8 C 5.808594 6.789062 6.789062 5.808594 7.996094 5.808594 C 9.207031 5.808594 10.1875 6.789062 10.1875 8 C 10.1875 9.210938 9.207031 10.191406 7.996094 10.191406 C 6.789062 10.191406 5.808594 9.210938 5.808594 8 Z M 5.808594 8 "/>
<path style=" stroke:none;fill-rule:nonzero;fill:rgb(30.980392%,30.980392%,30.980392%);fill-opacity:1;" d="M 8 6.578125 C 8.785156 6.578125 9.421875 7.214844 9.421875 8 C 9.421875 8.785156 8.785156 9.421875 8 9.421875 C 7.214844 9.421875 6.578125 8.785156 6.578125 8 C 6.578125 7.214844 7.214844 6.578125 8 6.578125 Z M 8 6.578125 "/>
</g>
</svg>
