<?xml version="1.0" encoding="UTF-8"?>
<svg xmlns="http://www.w3.org/2000/svg" xmlns:xlink="http://www.w3.org/1999/xlink" width="16pt" height="16pt" viewBox="0 0 16 16" version="1.1">
<g id="surface1">
<path style=" stroke:none;fill-rule:evenodd;fill:rgb(30.980392%,30.980392%,30.980392%);fill-opacity:1;" d="M 8 0 C 3.582031 0 0 3.582031 0 8 C 0 12.417969 3.582031 16 8 16 C 12.417969 16 16 12.417969 16 8 C 16 3.582031 12.417969 0 8 0 Z M 8.652344 10.523438 C 8.574219 10.609375 8.417969 10.625 8.417969 10.625 L 7.910156 10.625 C 7.910156 10.625 6.785156 10.691406 5.792969 9.679688 C 4.710938 8.574219 3.757812 6.382812 3.757812 6.382812 C 3.757812 6.382812 3.703125 6.238281 3.761719 6.167969 C 3.828125 6.089844 4.011719 6.085938 4.011719 6.085938 L 5.230469 6.078125 C 5.230469 6.078125 5.347656 6.097656 5.429688 6.15625 C 5.496094 6.203125 5.535156 6.296875 5.535156 6.296875 C 5.535156 6.296875 5.730469 6.785156 5.992188 7.226562 C 6.5 8.089844 6.738281 8.28125 6.910156 8.1875 C 7.164062 8.054688 7.089844 6.964844 7.089844 6.964844 C 7.089844 6.964844 7.09375 6.574219 6.960938 6.398438 C 6.859375 6.261719 6.667969 6.222656 6.582031 6.210938 C 6.515625 6.199219 6.625 6.042969 6.773438 5.972656 C 6.992188 5.867188 7.378906 5.863281 7.835938 5.867188 C 8.195312 5.871094 8.296875 5.894531 8.4375 5.925781 C 8.761719 6.003906 8.75 6.25 8.726562 6.777344 C 8.722656 6.9375 8.714844 7.121094 8.714844 7.332031 C 8.714844 7.382812 8.710938 7.433594 8.710938 7.484375 C 8.703125 7.757812 8.695312 8.066406 8.878906 8.183594 C 8.96875 8.242188 9.199219 8.191406 9.769531 7.238281 C 10.042969 6.789062 10.242188 6.257812 10.242188 6.257812 C 10.242188 6.257812 10.289062 6.164062 10.359375 6.121094 C 10.429688 6.082031 10.523438 6.09375 10.523438 6.09375 L 11.804688 6.085938 C 11.804688 6.085938 12.191406 6.039062 12.253906 6.210938 C 12.320312 6.390625 12.109375 6.808594 11.585938 7.496094 C 11.089844 8.144531 10.847656 8.382812 10.867188 8.59375 C 10.882812 8.75 11.039062 8.890625 11.34375 9.167969 C 11.972656 9.742188 12.144531 10.042969 12.183594 10.117188 C 12.1875 10.121094 12.191406 10.125 12.191406 10.128906 C 12.472656 10.589844 11.878906 10.625 11.878906 10.625 L 10.738281 10.640625 C 10.738281 10.640625 10.492188 10.6875 10.171875 10.472656 C 10.003906 10.359375 9.835938 10.171875 9.679688 9.996094 C 9.441406 9.726562 9.21875 9.476562 9.03125 9.535156 C 8.710938 9.632812 8.722656 10.304688 8.722656 10.304688 C 8.722656 10.304688 8.722656 10.449219 8.652344 10.523438 Z M 8.652344 10.523438 "/>
</g>
</svg>
